<svg width="300" height="800" viewBox="0 0 300 800" xmlns="http://www.w3.org/2000/svg">
  <defs>
    <radialGradient id="pink-wash" cx="50%" cy="50%" r="80%">
      <stop offset="0%" style="stop-color:#FFDFE5; stop-opacity:0.1" />
      <stop offset="50%" style="stop-color:#FFC0CB; stop-opacity:0.7" />
      <stop offset="100%" style="stop-color:#FFB6C1; stop-opacity:0.3" />
    </radialGradient>
  </defs>

  <rect x="0" y="0" width="300" height="800" fill="#FFFFFF" />

  <ellipse cx="150" cy="200" rx="200" ry="250" fill="url(#pink-wash)" opacity="0.6" transform="rotate(-30 150 200)"/>
  <ellipse cx="150" cy="600" rx="220" ry="200" fill="url(#pink-wash)" opacity="0.5" transform="rotate(20 150 600)"/>

  <g fill="#DAA520" opacity="0.9">
    <circle cx="45" cy="70" r="2" />
    <circle cx="55" cy="65" r="1.2" />
    <circle cx="60" cy="80" r="1.8" />
    <circle cx="30" cy="90" r="1.5" />

    <circle cx="250" cy="120" r="1.5" />
    <circle cx="260" cy="115" r="1" />
    <circle cx="265" cy="130" r="2" />

    <circle cx="20" cy="700" r="2.5" />
    <circle cx="35" cy="710" r="1.5" />
    <circle cx="40" cy="695" r="1" />

    <circle cx="270" cy="750" r="1.8" />
    <circle cx="280" cy="745" r="1.2" />
    <circle cx="285" cy="760" r="2.2" />
    
    <circle cx="150" cy="400" r="1.5" />
    <circle cx="160" cy="410" r="1" />
  </g>
</svg>
